<?xml version="1.0" encoding="UTF-8" standalone="no"?>
<svg width="40px" height="68px" viewBox="0 0 40 68" version="1.1" xmlns="http://www.w3.org/2000/svg" xmlns:xlink="http://www.w3.org/1999/xlink">
    <!-- Generator: Sketch 39.1 (31720) - http://www.bohemiancoding.com/sketch -->
    <title>bulb</title>
    <desc>Created with Sketch.</desc>
    <defs></defs>
    <g id="FTUE-v3" stroke="none" stroke-width="1" fill="none" fill-rule="evenodd">
        <g id="FTUE-4" transform="translate(-229.000000, -195.000000)">
            <g id="bulb" transform="translate(229.000000, 195.000000)">
                <path d="M20.2946538,0.758612628 C9.53543489,0.758612628 0.812063747,9.56409512 0.812063747,20.4262261 C0.812063747,27.40874 7.86125255,36.6165236 7.86125255,36.6165236 C8.96071558,38.0504683 10.3968563,40.6023587 11.055745,42.2885715 L11.2096172,42.684234 C11.868506,44.3704467 12.405086,46.0978189 12.405086,47.8437794 L12.405086,48.3403491 L12.405086,50.1234859 C12.405086,51.9358326 13.2309984,53.4189032 15.0248592,53.4189032 L25.5749697,53.4189032 C27.3714607,53.4189032 28.1802762,51.9358326 28.1802762,50.1234859 L28.1802762,48.2699796 L28.1802762,47.8105862 C28.1802762,46.0818862 28.7194866,44.3704467 29.3770602,42.684234 L29.5309324,42.2898992 C30.1898211,40.6036865 31.627277,38.051796 32.7241097,36.6165236 C32.7241097,36.6165236 39.7759288,27.40874 39.7759288,20.4262261 C39.7759288,9.56409512 31.0551879,0.758612628 20.2946538,0.758612628 L20.2946538,0.758612628 Z" id="Fill-199" fill="#FFD771"></path>
                <path d="M27.2769017,55.3498159 L13.3047782,55.3498159 C12.731374,55.3498159 12.2605513,55.7879656 12.2605513,56.3164008 L12.2605513,56.844836 C12.2605513,57.3852207 12.731374,57.820715 13.3047782,57.820715 L27.3347681,57.820715 C27.9068571,57.820715 28.3250739,57.3852207 28.3250739,56.844836 L28.3250739,56.3164008 C28.3250739,55.7879656 27.851621,55.3498159 27.2769017,55.3498159" id="Fill-201" fill="#868F95"></path>
                <path d="M20.2982047,67.4479275 C22.7562148,67.4479275 25.5745752,66.0246046 25.5745752,63.8949312 L15.0244646,63.8949312 C15.0244646,66.0246046 17.8401947,67.4479275 20.2982047,67.4479275" id="Fill-203" fill="#868F95"></path>
                <path d="M27.2769017,59.5711897 L13.3047782,59.5711897 C12.731374,59.5711897 12.2605513,60.0093394 12.2605513,60.5364469 L12.2605513,61.0768316 C12.2605513,61.603939 12.731374,62.0420888 13.3047782,62.0420888 L27.3347681,62.0420888 C27.9068571,62.0420888 28.3250739,61.603939 28.3250739,61.0768316 L28.3250739,60.5364469 C28.3250739,60.0093394 27.851621,59.5711897 27.2769017,59.5711897" id="Fill-205" fill="#868F95"></path>
                <path d="M6.68051342,20.3478902 C6.68051342,12.754622 12.7775357,6.59795401 20.3001775,6.59795401" id="Stroke-207" stroke="#FFFFFF" stroke-width="2.5" stroke-linecap="round"></path>
            </g>
        </g>
    </g>
</svg>