<?xml version="1.0" encoding="UTF-8" standalone="no"?>
<svg width="62px" height="78px" viewBox="0 0 62 78" version="1.1" xmlns="http://www.w3.org/2000/svg" xmlns:xlink="http://www.w3.org/1999/xlink">
    <!-- Generator: Sketch 39.1 (31720) - http://www.bohemiancoding.com/sketch -->
    <title>camera</title>
    <desc>Created with Sketch.</desc>
    <defs></defs>
    <g id="FTUE-v3" stroke="none" stroke-width="1" fill="none" fill-rule="evenodd">
        <g id="FTUE-2" transform="translate(-220.000000, -188.000000)">
            <g id="camera" transform="translate(220.982456, 188.000000)">
                <polygon id="Fill-1" fill="#C9CDD0" points="1.37998509 37.0902605 16.8317366 51.1791111 44.0067429 51.1791111 59.2461466 37.0902605"></polygon>
                <g id="Group-12" transform="translate(0.000000, 0.420596)">
                    <path d="M45.4410559,1.57521379 L59.3153665,14.228754 L1.45196273,14.228754 L15.1084099,1.60024828 C16.1260248,0.660064368 17.4552671,0.139903448 18.8369068,0.139903448 L41.7428944,0.139903448 C43.1079876,0.139903448 44.4261988,0.65171954 45.4410559,1.57521379" id="Fill-2" fill="#C9CDD0"></path>
                    <polygon id="Fill-4" fill="#C9CDD0" points="58.0153565 76.8850575 2.85456149 76.8850575 2.85456149 71.3162759 58.0153565 71.3162759"></polygon>
                    <polygon id="Fill-6" fill="#B1B9BF" points="44.1920646 71.3577218 16.6420025 71.3577218 16.6420025 50.5457218 44.1920646 50.5457218"></polygon>
                    <path d="M53.6917342,39.4248483 L7.05242981,39.4248483 C3.17501366,39.4248483 0.000827329192,36.2232161 0.000827329192,32.3122736 L0.000827329192,18.6684805 C0.000827329192,14.7575379 3.17501366,11.5559057 7.05242981,11.5559057 L53.6917342,11.5559057 C57.5719081,11.5559057 60.7433366,14.7575379 60.7433366,18.6684805 L60.7433366,32.3122736 C60.7433366,36.2232161 57.5719081,39.4248483 53.6917342,39.4248483" id="Fill-8" fill="#444B51"></path>
                    <path d="M38.6456497,25.4898207 C38.6456497,30.0989471 34.9419727,33.8346483 30.3723578,33.8346483 C25.8027429,33.8346483 22.0990658,30.0989471 22.0990658,25.4898207 C22.0990658,20.8806943 25.8027429,17.1449931 30.3723578,17.1449931 C34.9419727,17.1449931 38.6456497,20.8806943 38.6456497,25.4898207" id="Fill-10" fill="#191919"></path>
                </g>
            </g>
        </g>
    </g>
</svg>