<?xml version="1.0" encoding="UTF-8" standalone="no"?>
<svg width="41px" height="73px" viewBox="0 0 41 73" version="1.1" xmlns="http://www.w3.org/2000/svg" xmlns:xlink="http://www.w3.org/1999/xlink">
    <!-- Generator: Sketch 39.1 (31720) - http://www.bohemiancoding.com/sketch -->
    <title>door-open</title>
    <desc>Created with Sketch.</desc>
    <defs></defs>
    <g id="FTUE-v3" stroke="none" stroke-width="1" fill="none" fill-rule="evenodd">
        <g id="FTUE-2" transform="translate(-108.000000, -190.000000)">
            <g id="door-open" transform="translate(108.000000, 190.000000)">
                <path d="M40.9883833,66.0640316 L27.3353833,66.0640316 L27.3353833,8.03126633 L38.7106056,8.03126633 C39.9679389,8.03126633 40.9883833,9.03240918 40.9883833,10.2659602 L40.9883833,66.0640316 Z" id="Fill-1" fill="#DDE2E6"></path>
                <path d="M26.0518556,72.9835378 C25.9015222,72.9835378 25.7511889,72.9589561 25.6076889,72.9075582 L0.845966667,63.5374867 C0.338022222,63.3564765 0.000911111112,62.8894255 0.000911111112,62.3665071 L0.000911111112,9.73052755 C0.000911111112,9.17408878 0.3813,8.68469082 0.937077778,8.53273163 L25.6965222,0.0520683673 C26.0860222,-0.0619010204 26.5074111,0.0185479592 26.8285778,0.253190816 C27.1520222,0.490068367 27.3433556,0.856558163 27.3433556,1.24986429 L27.3433556,71.7365786 C27.3433556,72.1432929 27.1383556,72.5254255 26.7898556,72.7600684 C26.5711889,72.9075582 26.3138,72.9835378 26.0518556,72.9835378" id="Fill-3" fill="#FF800C"></path>
                <ellipse id="Oval-61" fill="#FFFFFF" cx="20.4752464" cy="35.7502738" rx="2.4752464" ry="2.75027377"></ellipse>
            </g>
        </g>
    </g>
</svg>