<?xml version="1.0" encoding="UTF-8" standalone="no"?>
<svg width="350px" height="273px" viewBox="0 0 350 273" version="1.1" xmlns="http://www.w3.org/2000/svg" xmlns:xlink="http://www.w3.org/1999/xlink">
    <!-- Generator: Sketch 40.1 (33804) - http://www.bohemiancoding.com/sketch -->
    <title>house</title>
    <desc>Created with Sketch.</desc>
    <defs>
        <path d="M0.00782512563,0.153309255 L0.00782512563,5.61535432 C-0.0750291457,7.18896103 0.498966834,8.79019103 1.74638392,9.9922645 C4.08563618,12.2463249 7.8762191,12.2463249 10.2140905,9.9922645 C12.5515015,7.73958526 12.5515015,4.08548448 10.2136302,1.83188447 C9.10936683,0.767927442 7.68197186,0.212238939 6.23524422,0.153309255 L0.00782512563,0.153309255 L0.00782512563,0.153309255 Z" id="path-1"></path>
        <polygon id="path-3" points="0.401843216 0.224669419 3.13833568 3.21581126 0.401843216 3.21581126 6.01291859 8.32335744 3.23223719 4.15546348 6.17908744 4.15546348 3.13833568 0.224669419"></polygon>
    </defs>
    <g id="FTUE-v3" stroke="none" stroke-width="1" fill="none" fill-rule="evenodd">
        <g id="house">
            <g id="iot-lines" transform="translate(14.000000, 15.000000)" stroke="#FFFFFF" stroke-linecap="round" opacity="0.515450093">
                <path d="M3.88333729,165.680762 L4.40975457,164.865414" id="Stroke-1" style="mix-blend-mode: screen;"></path>
                <path d="M5.62723558,162.362744 L31.2812195,113.555155" id="Stroke-3" stroke-dasharray="4.095,6.142" style="mix-blend-mode: screen;"></path>
                <path d="M31.9392665,112.303635 L32.4656838,111.488288" id="Stroke-5" style="mix-blend-mode: screen;"></path>
                <path d="M14.5673956,55.9303489 L14.8834721,56.8142942" id="Stroke-8" style="mix-blend-mode: screen;"></path>
                <path d="M15.5823604,59.4174209 L30.3561976,110.176136" id="Stroke-10" stroke-dasharray="3.926,5.889" style="mix-blend-mode: screen;"></path>
                <polyline id="Stroke-12" style="mix-blend-mode: screen;" points="30.7349337 111.477469 30.9922422 112.361414 31.8046744 111.928649"></polyline>
                <path d="M34.251407,110.625797 L77.882006,87.3890859" id="Stroke-14" stroke-dasharray="4.014,6.022" style="mix-blend-mode: screen;"></path>
                <polyline id="Stroke-16" style="mix-blend-mode: screen;" points="79.1052573 86.7374985 79.9176894 86.3047336 79.6617618 87.1891393"></polyline>
                <path d="M78.9065451,89.7959951 L59.1476426,158.008946" id="Stroke-18" stroke-dasharray="3.93,5.895" style="mix-blend-mode: screen;"></path>
                <polyline id="Stroke-20" style="mix-blend-mode: screen;" points="58.7699652 159.312627 58.5135773 160.197032 57.6219733 160.425845"></polyline>
                <path d="M54.9341347,161.115783 L2.51868141,174.568785" id="Stroke-22" stroke-dasharray="4.019,6.029" style="mix-blend-mode: screen;"></path>
                <path d="M1.17487719,174.913708 L0.283273166,175.194878" id="Stroke-24" style="mix-blend-mode: screen;"></path>
                <path d="M14.4826541,50.4136868 L15.3673536,50.1002696" id="Stroke-27" style="mix-blend-mode: screen;"></path>
                <path d="M18.0371944,49.331007 L96.8007662,26.6334106" id="Stroke-29" stroke-dasharray="4.024,6.036" style="mix-blend-mode: screen;"></path>
                <polyline id="Stroke-31" style="mix-blend-mode: screen;" points="98.1357327 26.2488023 99.0204322 25.9937473 98.7424101 26.8717075"></polyline>
                <path d="M97.924086,29.4549915 L80.6047815,84.1352926" id="Stroke-33" stroke-dasharray="3.924,5.886" style="mix-blend-mode: screen;"></path>
                <polyline id="Stroke-35" style="mix-blend-mode: screen;" points="80.1958496 85.4269576 79.9178275 86.3049178 80.7924004 86.0176356"></polyline>
                <path d="M83.4096287,85.1596102 L172.5,56.5" id="Stroke-37" stroke-dasharray="3.989,5.983" style="mix-blend-mode: screen;"></path>
                <path d="M172.121881,52.52518 L180.275662,2.05282664" id="Stroke-41" stroke-dasharray="4.151,6.227" style="mix-blend-mode: screen;"></path>
                <path d="M177.184691,0.867050908 L100.730452,25.9715566" id="Stroke-45" stroke-dasharray="3.951,5.926" style="mix-blend-mode: screen;"></path>
                <polyline id="Stroke-47" style="mix-blend-mode: screen;" points="99.4347035 26.3972775 98.5601307 26.6845597 99.4130693 27.0303112"></polyline>
                <path d="M101.962403,28.0639287 L171.328125,56.6884766 C199.689011,50.2945458 258.04328,37.1386396 258.04328,37.1386396" id="Stroke-49" stroke-dasharray="3.984,5.976" style="mix-blend-mode: screen;"></path>
                <path d="M257.5,37.5 L182.743845,0.699101309" id="Stroke-53" stroke-dasharray="4.015,6.022" style="mix-blend-mode: screen;"></path>
                <polyline id="Stroke-57" stroke-dasharray="4.04,6.06" style="mix-blend-mode: screen;" points="182.514661 2.93750852 223.329135 73.2093149 259.443931 110.875511"></polyline>
                <polyline id="Stroke-59" style="mix-blend-mode: screen;" points="260.409275 111.882288 261.046333 112.547089 260.882005 113.452672"></polyline>
                <path d="M260.401818,116.100595 L250.235139,172.144565" id="Stroke-61" stroke-dasharray="3.897,5.845" style="mix-blend-mode: screen;"></path>
                <path d="M250.032577,173.468181 L249.830718,174.374225" id="Stroke-63" style="mix-blend-mode: screen;"></path>
                <path d="M18.8296494,53.0086336 L19.6379389,53.5500421" id="Stroke-66" style="mix-blend-mode: screen;"></path>
                <polyline id="Stroke-68" stroke-dasharray="3.954,5.931" style="mix-blend-mode: screen;" points="22.0351431 54.7557606 79.9180577 86.3047797 119.993288 131.118502"></polyline>
                <path d="M120.903166,132.136052 L121.516748,132.822491" id="Stroke-70" style="mix-blend-mode: screen;"></path>
                <path d="M58.5138074,160.237064 L59.4178396,160.022085" id="Stroke-73" style="mix-blend-mode: screen;"></path>
                <polyline id="Stroke-75" stroke-dasharray="3.939,5.908" style="mix-blend-mode: screen;" points="62.0878185 159.506128 114.249185 149.422246 186.584647 153.025244"></polyline>
                <polyline id="Stroke-77" style="mix-blend-mode: screen;" points="187.942858 153.092967 188.86208 153.138545 189.218354 152.28959"></polyline>
                <polyline id="Stroke-79" stroke-dasharray="4.027,6.041" style="mix-blend-mode: screen;" points="190.29348 149.724905 222.381098 73.1835331 257.169922 37.3701172"></polyline>
                <path d="M257.5,37.5 L261.060786,110.235894" id="Stroke-83" stroke-dasharray="4.026,6.039" style="mix-blend-mode: screen;"></path>
                <polyline id="Stroke-85" style="mix-blend-mode: screen;" points="261.052225 111.626082 261.046701 112.546858 260.180874 112.860843"></polyline>
                <path d="M257.600838,113.797089 L164.283453,147.657256" id="Stroke-87" stroke-dasharray="3.975,5.963" style="mix-blend-mode: screen;"></path>
                <polyline id="Stroke-89" style="mix-blend-mode: screen;" points="162.993366 148.125563 162.127999 148.439548 162.216837 147.522915"></polyline>
                <path d="M162.481511,144.788163 L171.5,57.5" id="Stroke-91" stroke-dasharray="3.979,5.968" style="mix-blend-mode: screen;"></path>
                <polyline id="Stroke-96" stroke-dasharray="4,6" style="mix-blend-mode: screen;" points="250.687892 162.312378 249.83081 174.374087 204.928398 156.854937"></polyline>
                <polyline id="Stroke-98" stroke-dasharray="4,6" style="mix-blend-mode: screen;" points="260.284994 169.924067 320.395768 144.632644 260.326421 113.096055"></polyline>
            </g>
            <g id="Group-13" transform="translate(28.000000, 108.000000)">
                <path d="M17.4724287,0.994643022 C26.8091845,0.994643022 34.3774619,8.56480545 34.3774619,17.9028584 C34.3774619,27.2409113 26.8091845,34.8110737 17.4724287,34.8110737 C8.13613327,34.8110737 0.567395578,27.2409113 0.567395578,17.9028584 C0.567395578,8.56480545 8.13613327,0.994643022 17.4724287,0.994643022" id="Fill-162" fill="#FFFFFF"></path>
                <g id="Page-1" transform="translate(7.000000, 12.000000)" fill="#F39672">
                    <path d="M12.4737885,4.07870481 C12.1900885,3.79563001 11.8582516,3.57398194 11.4854472,3.41427248 C11.1090582,3.2550749 10.7111612,3.17522017 10.2907321,3.17522017 C9.86006113,3.17522017 9.4580674,3.2550749 9.08065418,3.41427248 C8.70426516,3.57398194 8.37703714,3.79563001 8.09333711,4.07870481 C7.81014918,4.36229149 7.58790041,4.69399576 7.42863921,5.06613929 C7.26476915,5.44237794 7.1848825,5.84523483 7.1848825,6.27522185 C7.1848825,6.70930399 7.26476915,7.10704199 7.42863921,7.47918552 C7.58790041,7.84621016 7.81014918,8.17381932 8.09333711,8.45791789 C8.37703714,8.74099268 8.70426516,8.96622398 9.08065418,9.12593344 C9.4580674,9.28564291 9.86006113,9.36498575 10.2907321,9.36498575 C10.7111612,9.36498575 11.1090582,9.28564291 11.4854472,9.12593344 C11.8582516,8.96622398 12.1900885,8.74099268 12.4737885,8.45791789 C12.7574885,8.17381932 12.978201,7.84621016 13.1384864,7.47918552 C13.2977476,7.10704199 13.3776342,6.70930399 13.3776342,6.27522185 C13.3776342,5.84523483 13.2977476,5.44237794 13.1384864,5.06613929 C12.978201,4.69399576 12.7574885,4.36229149 12.4737885,4.07870481" id="Fill-1"></path>
                    <path d="M16.0386791,1.7649651 L15.1834822,2.32957902 C15.5439964,2.77850595 15.8466439,3.27862181 16.081695,3.82634337 C16.40329,4.58547523 16.5666479,5.41115269 16.5666479,6.28085264 C16.5666479,7.16437359 16.4084109,7.96343281 16.0837433,8.72000522 C15.9193612,9.09829142 15.722205,9.45507827 15.4948353,9.78985389 L16.3495201,10.3539559 C16.6096638,9.97055081 16.8354972,9.56001558 17.0239478,9.12542156 C17.4054577,8.23678171 17.5908357,7.30616693 17.5908357,6.28085264 C17.5908357,5.27294258 17.4003368,4.31315011 17.0239478,3.42502215 C16.7643162,2.81945709 16.4304309,2.26661663 16.0386791,1.7649651" id="Fill-3"></path>
                    <path d="M5.44376318,2.25663479 L4.58754215,1.69150899 C4.16967351,2.21210042 3.81940128,2.79053535 3.5474794,3.42220676 C3.16494525,4.30060882 2.97086165,5.26193696 2.97086165,6.28059669 C2.97086165,7.31717255 3.1603364,8.24932299 3.5474794,9.12772506 C3.74822022,9.58944922 3.99351321,10.0225076 4.27618905,10.4279239 L5.13189799,9.86331 C4.88148406,9.50652315 4.66333205,9.1256775 4.48563546,8.71821361 C4.15584698,7.96983143 3.99504949,7.17179599 3.99504949,6.28059669 C3.99504949,5.4037303 4.16045582,4.5795885 4.48768384,3.82864688 C4.73656148,3.25021195 5.05713227,2.7255254 5.44376318,2.25663479" id="Fill-5"></path>
                    <path d="M2.96205364,0.618486608 L2.1068568,0.0548964726 C1.59527497,0.7290547 1.1553863,1.46463964 0.810234996,2.2667702 C0.272536383,3.49991156 0.000102418784,4.85232313 0.000102418784,6.28458943 C0.000102418784,7.74296208 0.265367068,9.05339873 0.810234996,10.2880758 C1.08369315,10.9171877 1.41450582,11.5099555 1.79652788,12.0648436 L2.65172472,11.5002297 C2.30196458,10.9939711 1.99880498,10.4529041 1.74839105,9.87754052 C1.26087764,8.77288338 1.02429025,7.59758552 1.02429025,6.28458943 C1.02429025,4.99309269 1.26804696,3.77889123 1.75043943,2.67321032 C2.07203441,1.92534003 2.48222164,1.24299157 2.96205364,0.618486608" id="Fill-7"></path>
                    <path d="M19.7661083,2.26886895 C19.4322231,1.49284475 19.0097456,0.780806709 18.5222322,0.125588387 L17.6670353,0.689690411 C18.1222868,1.2937198 18.5150628,1.95149757 18.8238555,2.67070206 C19.2975424,3.78918021 19.5382265,5.00491733 19.5382265,6.28464062 C19.5382265,7.58637514 19.3047117,8.76320868 18.8259039,9.88015116 C18.5882923,10.4268489 18.3035681,10.9433453 17.975828,11.4281044 L18.8300006,11.9927184 C19.1905147,11.457794 19.5039162,10.8885731 19.7661083,10.2855675 C20.3017585,9.03655757 20.5624143,7.72765659 20.5624143,6.28464062 C20.5624143,4.86670722 20.2945892,3.51685509 19.7661083,2.26886895" id="Fill-10"></path>
                </g>
            </g>
            <g id="Group-15" transform="translate(89.000000, 19.000000)">
                <path d="M23.7585206,0.0964436172 C36.3279739,0.0964436172 46.5167477,10.2880562 46.5167477,22.8598755 C46.5167477,35.4312345 36.3279739,45.6233074 23.7585206,45.6233074 C11.188607,45.6233074 0.999372864,35.4312345 0.999372864,22.8598755 C0.999372864,10.2880562 11.188607,0.0964436172 23.7585206,0.0964436172" id="Fill-163" fill="#FFFFFF"></path>
                <path d="M27.5404088,19.1365784 L16.4386679,19.1365784 C15.9323363,19.1365784 15.5180649,19.5509277 15.5180649,20.0573547 L15.5180649,31.2783952 C15.5180649,31.7848222 15.9323363,32.1991715 16.4386679,32.1991715 L31.6212529,32.1991715 C32.1275845,32.1991715 32.5418559,31.7848222 32.5418559,31.2783952 L32.5418559,20.0573547 C32.5418559,19.5509277 32.1275845,19.1365784 31.6212529,19.1365784 L29.5404088,19.1365784 L29.5404088,16.9437957 L28.5404088,16.9437957 L27.5404088,16.9437957 L27.5404088,17.2149643 L28.5404088,17.2149643 L29.5404088,17.2149643 C29.5404088,14.1930363 27.0714064,11.7468972 24.0299144,11.7468972 C22.1138875,11.7468972 20.3647743,12.7268926 19.3629109,14.307741 C19.0672709,14.7742337 19.2057744,15.3920643 19.6722671,15.6877043 C20.1387598,15.9833443 20.7565904,15.8448408 21.0522304,15.3783481 C21.6904252,14.3713353 22.8049334,13.7468972 24.0299144,13.7468972 C25.9709806,13.7468972 27.5404088,15.3017924 27.5404088,17.2149643 L29.5404088,17.2149643 L29.5404088,16.9437957 L27.5404088,16.9437957 L27.5404088,19.1365784 Z M26.0800052,24.5457709 C26.0800052,23.4242654 25.1612434,22.5145384 24.0302826,22.5145384 C22.8974806,22.5145384 21.9787188,23.4242654 21.9787188,24.5457709 C21.9787188,25.3671034 22.4744635,26.0710369 23.1828675,26.3910066 L22.6742344,29.2647495 C22.6116334,29.6169464 22.8546726,29.9051494 23.2160092,29.9051494 L24.8427148,29.9051494 C25.2040515,29.9051494 25.4480113,29.6169464 25.3854103,29.2647495 L24.8758565,26.3910066 C25.5847208,26.0701161 26.0800052,25.366643 26.0800052,24.5457709 Z" id="Combined-Shape" fill="#F59073"></path>
            </g>
            <g id="Group-24" transform="translate(13.000000, 49.000000)">
                <path d="M15.0493262,0.890748375 C23.1842348,0.890748375 29.7794348,7.48672946 29.7794348,15.6231693 C29.7794348,23.7596092 23.1842348,30.3555903 15.0493262,30.3555903 C6.91441769,30.3555903 0.31967799,23.7596092 0.31967799,15.6231693 C0.31967799,7.48672946 6.91441769,0.890748375 15.0493262,0.890748375" id="Fill-173" fill="#FFFFFF"></path>
                <g id="Group-23" transform="translate(8.000000, 8.000000)" stroke="#454C52">
                    <path d="M7.48265407,3.64882254 L7.48265407,7.43459433" id="Stroke-174" stroke-linecap="round"></path>
                    <path d="M7.48265407,7.51833893 L11.2677134,7.51833893" id="Stroke-175" stroke-linecap="round"></path>
                    <path d="M0.580478995,7.43454829 C0.580478995,11.247483 3.67048302,14.3376083 7.4822398,14.3376083 C11.2944569,14.3376083 14.3849212,11.247483 14.3849212,7.43454829 C14.3849212,3.6216136 11.2944569,0.531488303 7.4822398,0.531488303 C3.67048302,0.531488303 0.580478995,3.6216136 0.580478995,7.43454829 L0.580478995,7.43454829 Z" id="Stroke-176"></path>
                </g>
            </g>
            <g id="Group-7" transform="translate(0.000000, 175.000000)">
                <path d="M0.189623518,15.0728643 C0.189623518,7.23521634 6.54224462,0.88139942 14.3784175,0.88139942 C22.2150507,0.88139942 28.5672115,7.23521634 28.5672115,15.0728643 C28.5672115,22.9105122 22.2150507,29.2643291 14.3784175,29.2643291 C6.54224462,29.2643291 0.189623518,22.9105122 0.189623518,15.0728643" id="Fill-177" fill="#FFFFFF"></path>
                <path d="M14.2039632,14.6294184 C14.5298567,14.6294184 14.7940697,14.8936812 14.7940697,15.219636 C14.7940697,15.5460512 14.5298567,15.810314 14.2039632,15.810314 C13.8780697,15.810314 13.6138567,15.5460512 13.6138567,15.219636 C13.6138567,14.8936812 13.8780697,14.6294184 14.2039632,14.6294184" id="Fill-209" fill="#FEFEFE"></path>
                <g id="Window" transform="translate(7.464730, 9.715789)">
                    <polygon id="Fill-211" fill="#F59173" points="0.224447599 10.3492938 13.2670908 10.3492938 13.2670908 9.47869976 0.224447599 9.47869976"></polygon>
                    <path d="M2.39845162,9.47869976 L11.061326,9.47869976 L11.061326,1.21473239 L2.39845162,1.21473239 L2.39845162,9.47869976 Z M11.4838828,0.347821493 L1.9961481,0.347821493 C1.73423654,0.347821493 1.52203755,0.560060432 1.52203755,0.822021292 L1.52203755,10.3479126 L11.9566124,10.3479126 L11.9566124,0.821100516 C11.9566124,0.559600044 11.7448737,0.347821493 11.4838828,0.347821493 L11.4838828,0.347821493 Z" id="Fill-213" fill="#F59173"></path>
                    <path d="M6.72998087,1.21477843 L6.72998087,5.42318655" id="Stroke-214" stroke="#F59173"></path>
                    <polygon id="Fill-215" fill="#F59173" points="2.39845162 5.98251212 11.061326 5.98251212 11.061326 5.12665054 2.39845162 5.12665054"></polygon>
                </g>
            </g>
            <g id="Group-22" transform="translate(180.000000, 0.000000)">
                <g id="Group-16">
                    <path d="M0.781657286,14.8776302 C0.781657286,7.0399823 7.13427839,0.686165377 14.9704513,0.686165377 C22.8070844,0.686165377 29.1592452,7.0399823 29.1592452,14.8776302 C29.1592452,22.7152782 22.8070844,29.0690951 14.9704513,29.0690951 C7.13427839,29.0690951 0.781657286,22.7152782 0.781657286,14.8776302 L0.781657286,14.8776302 Z" id="Fill-102" fill="#FFFFFF"></path>
                    <g id="CO" transform="translate(8.854772, 12.361404)" stroke="#FEFEFE">
                        <path d="M10.6646091,2.59085565 C10.6646091,3.80996348 9.67588148,4.79887724 8.45700309,4.79887724 C7.2376644,4.79887724 6.24939706,3.80996348 6.24939706,2.59085565 C6.24939706,1.37128743 7.2376644,0.38283406 8.45700309,0.38283406 C9.67588148,0.38283406 10.6646091,1.37128743 10.6646091,2.59085565 L10.6646091,2.59085565 Z" id="Stroke-221"></path>
                        <path d="M4.58223103,4.07588368 C4.17854661,4.51969786 3.5962652,4.79869308 2.94862098,4.79869308 C1.72974259,4.79869308 0.741475251,3.80977933 0.741475251,2.59067149 C0.741475251,1.37110327 1.72974259,0.383110293 2.94862098,0.383110293 C3.60501093,0.383110293 4.19419686,0.669471725 4.59834158,1.12341445" id="Stroke-222"></path>
                    </g>
                </g>
                <g id="Group-2" transform="translate(8.000000, 7.000000)">
                    <path d="M14.9123504,7.94774735 C14.9123504,12.0217221 11.6106076,15.3240864 7.5378599,15.3240864 C3.46511216,15.3240864 0.163369447,12.0217221 0.163369447,7.94774735 C0.163369447,3.87423296 3.46511216,0.572329119 7.5378599,0.572329119 C11.6106076,0.572329119 14.9123504,3.87423296 14.9123504,7.94774735" id="Fill-220" fill="#868F95"></path>
                    <g id="CO" transform="translate(1.854772, 5.361404)" stroke="#FEFEFE">
                        <path d="M10.6646091,2.59085565 C10.6646091,3.80996348 9.67588148,4.79887724 8.45700309,4.79887724 C7.2376644,4.79887724 6.24939706,3.80996348 6.24939706,2.59085565 C6.24939706,1.37128743 7.2376644,0.38283406 8.45700309,0.38283406 C9.67588148,0.38283406 10.6646091,1.37128743 10.6646091,2.59085565 L10.6646091,2.59085565 Z" id="Stroke-221"></path>
                        <path d="M4.58223103,4.07588368 C4.17854661,4.51969786 3.5962652,4.79869308 2.94862098,4.79869308 C1.72974259,4.79869308 0.741475251,3.80977933 0.741475251,2.59067149 C0.741475251,1.37110327 1.72974259,0.383110293 2.94862098,0.383110293 C3.60501093,0.383110293 4.19419686,0.669471725 4.59834158,1.12341445" id="Stroke-222"></path>
                    </g>
                </g>
            </g>
            <g id="Group-9" transform="translate(318.000000, 140.000000)">
                <path d="M31.8088718,16.3200132 C31.8088718,24.9601177 24.8063049,31.9649234 16.1673662,31.9649234 C7.52842754,31.9649234 0.525400402,24.9601177 0.525400402,16.3200132 C0.525400402,7.67944828 7.52842754,0.674642512 16.1673662,0.674642512 C24.8063049,0.674642512 31.8088718,7.67944828 31.8088718,16.3200132 Z" id="Fill-172" fill="#FFFFFF"></path>
                <path d="M9.12222151,10.9568134 C8.96019538,11.0360002 8.86030995,11.199438 8.86030995,11.378529 L8.86030995,16.8189358 C8.86030995,23.0903432 16.4423964,25.7900594 16.4423964,25.7900594 C16.4423964,25.7900594 24.0244828,23.0659427 24.0244828,16.8189358 L24.0244828,11.3835933 C24.0244828,11.2003588 23.9227562,11.0350794 23.7584285,10.9549719 C22.8792527,10.5291128 19.9236567,9.50244726 16.4423964,9.50244726 C12.9546919,9.50244726 9.99587377,10.5332563 9.12222151,10.9568134 Z M22.2398939,12.2647762 L22.2398939,16.8189358 C22.2398939,20.8081992 16.4400949,23.8545876 16.4400949,23.8545876 C16.4400949,23.8545876 10.6448989,20.8220108 10.6448989,16.8189358 L10.6448989,12.2647762 C11.8080808,11.8554911 13.9673552,11.2873721 16.4423964,11.2873721 C18.9197391,11.2873721 21.0790135,11.8559515 22.2398939,12.2647762 Z" id="Arming" fill="#60C5A5"></path>
            </g>
            <g id="Group-14" transform="translate(83.000000, 91.000000)">
                <path d="M12.648367,0.845856631 C19.162554,0.845856631 24.4435932,6.12788993 24.4435932,12.6433031 C24.4435932,19.1591766 19.162554,24.4412099 12.648367,24.4412099 C6.1341801,24.4412099 0.852680603,19.1591766 0.852680603,12.6433031 C0.852680603,6.12788993 6.1341801,0.845856631 12.648367,0.845856631" id="Fill-168" fill="#FFFFFF"></path>
                <g id="EcoSaver" transform="translate(7.232365, 6.333333)">
                    <g id="Group-227" transform="translate(0.445022, 0.676937)">
                        <mask id="mask-2" fill="white">
                            <use xlink:href="#path-1"></use>
                        </mask>
                        <g id="Clip-226"></g>
                        <polygon id="Fill-225" fill="#6EC5A3" mask="url(#mask-2)" points="-1.1005809 12.7835979 13.0674995 12.7835979 13.0674995 -0.947018434 -1.1005809 -0.947018434"></polygon>
                    </g>
                    <g id="Group-230" transform="translate(3.206831, 3.439265)">
                        <mask id="mask-4" fill="white">
                            <use xlink:href="#path-3"></use>
                        </mask>
                        <g id="Clip-229"></g>
                        <polygon id="Fill-228" fill="#FEFEFE" mask="url(#mask-4)" points="-0.698277387 9.42368513 7.27966834 9.42368513 7.27966834 -0.87565827 -0.698277387 -0.87565827"></polygon>
                    </g>
                </g>
            </g>
            <g id="Group-11" transform="translate(61.000000, 164.000000)">
                <path d="M10.923839,0.422430334 C16.7839375,0.422430334 21.534249,5.17409648 21.534249,11.0352981 C21.534249,16.8960393 16.7839375,21.6481658 10.923839,21.6481658 C5.0637405,21.6481658 0.312968643,16.8960393 0.312968643,11.0352981 C0.312968643,5.17409648 5.0637405,0.422430334 10.923839,0.422430334" id="Fill-169" fill="#FFFFFF"></path>
                <path d="M9.63310754,13.8471187 C8.92654472,13.8471187 8.35346935,13.2739355 8.35346935,12.5677 C8.35346935,12.3158677 8.42757789,12.0815302 8.5532402,11.8835632 C8.5541608,11.8817217 8.5537005,11.8812613 8.55508141,11.8789594 L8.56152563,11.8697516 C8.57073166,11.8554796 8.58085829,11.8416679 8.59052462,11.8273959 L9.55715779,10.4245932 C9.59674372,10.3675051 9.68097889,10.3679654 9.72010452,10.4250536 L10.7125146,11.8789594 C10.716197,11.884484 10.7166573,11.8877067 10.7180382,11.8913898 C10.8404784,12.0875152 10.9122854,12.3186301 10.9122854,12.5677 C10.9122854,13.2739355 10.3396704,13.8471187 9.63310754,13.8471187 M13.661206,9.87304817 C13.6579839,9.86338002 13.6570633,9.85463265 13.6469367,9.83990023 L10.9311578,5.86214657 C10.8243678,5.70515421 10.5932965,5.70469382 10.4855859,5.86076541 L7.84161407,9.69856106 C7.81445628,9.73677328 7.78729849,9.7749855 7.76198191,9.8136581 L7.74403015,9.83990023 C7.74080804,9.8449645 7.74172864,9.84680605 7.73896683,9.85140993 C7.39558191,10.3932868 7.19350955,11.0341471 7.19350955,11.7228878 C7.19350955,13.656518 8.76083618,15.2236793 10.6936422,15.2236793 C12.6264482,15.2236793 14.1937749,13.656518 14.1937749,11.7228878 C14.1937749,11.0428945 13.9963055,10.4103212 13.661206,9.87304817" id="Fill-231" fill="#868F95"></path>
            </g>
            <g id="Group-10" transform="translate(253.000000, 170.000000)">
                <path d="M15.2511777,0.191646375 C23.3865465,0.191646375 29.9808259,6.78670669 29.9808259,14.9240673 C29.9808259,23.0605072 23.3865465,29.6564883 15.2511777,29.6564883 C7.11672945,29.6564883 0.521529447,23.0605072 0.521529447,14.9240673 C0.521529447,6.78670669 7.11672945,0.191646375 15.2511777,0.191646375" id="Fill-178" fill="#FFFFFF"></path>
                <path d="M14.6016002,21.5736376 C13.5553349,20.3172383 13.2427902,18.8163729 13.8006756,18.0093125 C14.0055097,18.5327738 14.3033248,19.0534728 14.7056283,19.5368804 C15.4816967,20.468706 16.9362494,21.1717187 17.8734233,21.3761311 L17.8844706,21.3752103 C19.8292444,20.73435 21.1885148,19.2786026 21.1885148,17.5829931 C21.1885148,16.9214153 20.9795379,16.2980497 20.6108364,15.7446632 C20.4916183,15.5655722 20.3562896,15.3938474 20.2053108,15.23087 L20.2048505,15.2267265 C19.8218796,14.8215849 19.4840183,14.3372566 19.2188846,13.7857116 C18.5730816,12.4422989 18.5118615,11.017858 18.9311962,9.91568874 C17.6345268,10.1592341 16.6448786,11.4340489 16.6448786,12.974968 C16.6448786,13.7175741 16.8754896,14.3989486 17.2584605,14.9329988 L17.3638695,15.0513186 C17.3551238,15.0471751 17.3491399,15.0416505 17.3403942,15.0379673 C15.9613309,14.3902012 15.6474052,13.1950336 15.6474052,12.2249957 L15.6621349,11.7231726 C15.6621349,9.63807468 14.4529228,7.91207949 12.8671841,7.57691692 C13.1654595,8.25691022 13.3408344,9.01102602 13.3408344,9.81256179 C13.3408344,11.3590056 12.7148243,12.7631895 11.7270173,13.7286234 L11.7260967,13.7286234 C11.2142414,14.1724376 10.8077952,14.7037255 10.5329952,15.2911808 C10.2825912,15.827533 10.1412786,16.4113052 10.1412786,17.0236215 C10.1412786,19.3292453 12.0920364,21.2430789 14.6637409,21.6449978 L14.6016002,21.5736376 Z" id="Fill-233" fill="#F05B5C"></path>
            </g>
            <g id="Group-20" transform="translate(224.000000, 76.000000)">
                <g id="Group-19">
                    <path d="M0.0222327638,11.6203403 C0.0222327638,5.26652337 5.17254633,0.115240313 11.5251674,0.115240313 C17.8777885,0.115240313 23.0285624,5.26652337 23.0285624,11.6203403 C23.0285624,17.9746176 17.8777885,23.1254403 11.5251674,23.1254403 C5.17254633,23.1254403 0.0222327638,17.9746176 0.0222327638,11.6203403" id="Fill-170" fill="#FFFFFF"></path>
                    <path d="M16.5499568,8.25946073 L16.5499568,13.8135834 C16.5499568,14.235299 16.2047307,14.5805901 15.7830945,14.5805901 L14.0035688,14.5805901 L14.0035688,17.4000071 L11.2693779,14.5805901 L7.35773568,14.5805901 C6.9356392,14.5805901 6.59041307,14.235299 6.59041307,13.8135834 L6.59041307,8.25946073 C6.59041307,7.83728479 6.9356392,7.49245406 7.35773568,7.49245406 L15.7830945,7.49245406 C16.2047307,7.49245406 16.5499568,7.83728479 16.5499568,8.25946073" id="Messages" fill="#2C9BD6"></path>
                </g>
            </g>
            <g id="Group-8" transform="translate(253.000000, 110.000000)">
                <path d="M20.5316185,0.260250059 C31.7735622,0.260250059 40.8856909,9.37547513 40.8856909,20.6186142 C40.8856909,31.8622138 31.7735622,40.9774388 20.5316185,40.9774388 C9.29013508,40.9774388 0.177085829,31.8622138 0.177085829,20.6186142 C0.177085829,9.37547513 9.29013508,0.260250059 20.5316185,0.260250059" id="Fill-171" fill="#FFFFFF"></path>
                <g id="Group-6" transform="translate(14.000000, 9.000000)">
                    <path d="M7.10312884,0.263048342 C3.33740221,0.263048342 0.284222312,3.31634258 0.284222312,7.08277807 C0.284222312,9.50395938 2.75143839,12.6967512 2.75143839,12.6967512 C3.13625045,13.1939704 3.6388997,14.0788365 3.86951075,14.6635294 L3.92336603,14.8007251 C4.15397709,15.3854181 4.3417801,15.984383 4.3417801,16.5897935 L4.3417801,16.7619786 L4.3417801,17.3802799 C4.3417801,18.0087098 4.63084945,18.5229633 5.2587007,18.5229633 L8.9512394,18.5229633 C9.58001126,18.5229633 9.86309668,18.0087098 9.86309668,17.3802799 L9.86309668,16.7375781 L9.86309668,16.5782838 C9.86309668,15.9788584 10.0518203,15.3854181 10.2819711,14.8007251 L10.3358263,14.6639898 C10.5664374,14.0792969 11.0695469,13.1944308 11.4534384,12.6967512 C11.4534384,12.6967512 13.9215751,9.50395938 13.9215751,7.08277807 C13.9215751,3.31634258 10.8693158,0.263048342 7.10312884,0.263048342 L7.10312884,0.263048342 Z" id="Fill-199" fill="#FFD771"></path>
                    <path d="M9.54691558,19.1925058 L4.65667236,19.1925058 C4.4559809,19.1925058 4.29119296,19.3444339 4.29119296,19.5276684 L4.29119296,19.7109029 C4.29119296,19.8982809 4.4559809,20.0492882 4.65667236,20.0492882 L9.56716884,20.0492882 C9.7674,20.0492882 9.91377588,19.8982809 9.91377588,19.7109029 L9.91377588,19.5276684 C9.91377588,19.3444339 9.74806734,19.1925058 9.54691558,19.1925058" id="Fill-201" fill="#868F95"></path>
                    <path d="M7.10437166,23.3875166 C7.96467518,23.3875166 8.95110131,22.8939805 8.95110131,22.1555179 L5.25856261,22.1555179 C5.25856261,22.8939805 6.24406814,23.3875166 7.10437166,23.3875166" id="Fill-203" fill="#868F95"></path>
                    <path d="M9.54691558,20.6562639 L4.65667236,20.6562639 C4.4559809,20.6562639 4.29119296,20.808192 4.29119296,20.9909661 L4.29119296,21.1783441 C4.29119296,21.3611182 4.4559809,21.5130463 4.65667236,21.5130463 L9.56716884,21.5130463 C9.7674,21.5130463 9.91377588,21.3611182 9.91377588,21.1783441 L9.91377588,20.9909661 C9.91377588,20.808192 9.74806734,20.6562639 9.54691558,20.6562639" id="Fill-205" fill="#868F95"></path>
                    <path d="M2.3381797,7.05561517 C2.3381797,4.42265532 4.47213749,2.28783544 7.10506211,2.28783544" id="Stroke-207" stroke="#F1F1F2" stroke-width="1.5" stroke-linecap="round"></path>
                </g>
            </g>
            <g id="House" transform="translate(72.000000, 119.000000)">
                <polygon id="Fill-107" fill="#5D6677" points="150.355559 16.5446123 60.9025861 16.5446123 45.6804736 70.4603443 105.375448 70.4603443 105.882697 70.4603443 165.575975 70.4603443"></polygon>
                <polygon id="Fill-108" fill="#AA734D" points="69.4517548 16.5444424 83.304806 16.5444424 83.304806 0.916017163 69.4517548 0.916017163"></polygon>
                <polyline id="Fill-109" fill="#E1E2E1" points="129.046849 97.9014136 129.046849 60.3931929 105.628182 39.2950311 82.2095146 60.3931929 82.2095146 97.9014136"></polyline>
                <polygon id="Fill-110" fill="#39465A" points="105.628267 32.6834557 78.5693723 57.1743572 78.5693723 63.5705057 105.628267 39.2948613"></polygon>
                <polygon id="Fill-111" fill="#39465A" points="105.628267 32.444635 132.687161 56.9355365 132.687161 63.331685 105.628267 39.0560406"></polygon>
                <polygon id="Fill-112" fill="#E1E2E1" points="52.3160101 153.123548 158.743562 153.123548 158.743562 70.4601745 52.3160101 70.4601745"></polygon>
                <polygon id="Fill-113" fill="#020302" points="52.3160101 73.8045132 82.2097266 73.8045132 82.2097266 70.4601745 52.3160101 70.4601745"></polygon>
                <polygon id="Fill-114" fill="#020302" points="129.047061 73.8045132 158.940354 73.8045132 158.940354 70.4601745 129.047061 70.4601745"></polygon>
                <polygon id="Fill-115" fill="#ABBCC8" points="65.9167095 106.053584 87.6053889 106.053584 87.6053889 85.0530733 65.9167095 85.0530733"></polygon>
                <polygon id="Stroke-116" stroke="#FEFEFE" stroke-width="2" points="65.9167095 106.053584 87.6053889 106.053584 87.6053889 85.0530733 65.9167095 85.0530733"></polygon>
                <path d="M76.5979325,85.0532007 L76.5979325,106.053711" id="Stroke-117" stroke="#FEFEFE" stroke-width="2"></path>
                <path d="M47.1277851,114.589821 C47.1277851,116.805227 44.9885208,118.598611 42.3492183,118.598611 C39.7103399,118.598611 37.5710756,116.805227 37.5710756,114.589821 C37.5710756,112.376961 39.7103399,110.584002 42.3492183,110.584002 C44.9885208,110.584002 47.1277851,112.376961 47.1277851,114.589821" id="Fill-137" fill="#20A94A"></path>
                <polygon id="Fill-118" fill="#ABBCC8" points="65.9167095 132.793433 87.6053889 132.793433 87.6053889 111.792923 65.9167095 111.792923"></polygon>
                <polygon id="Stroke-119" stroke="#FEFEFE" stroke-width="2" points="65.9167095 132.793433 87.6053889 132.793433 87.6053889 111.792923 65.9167095 111.792923"></polygon>
                <path d="M76.5979325,111.792795 L76.5979325,132.793306" id="Stroke-120" stroke="#FEFEFE" stroke-width="2"></path>
                <g id="Group-123" transform="translate(94.488442, 111.629039)">
                    <polyline id="Fill-121" fill="#D65556" points="0.196325427 41.4946791 0.196325427 0.161931035 21.8854289 0.161931035 21.8854289 41.4946791"></polyline>
                    <polyline id="Stroke-122" stroke="#B54152" stroke-width="2" points="0.196325427 41.4946791 0.196325427 0.161931035 21.8854289 0.161931035 21.8854289 41.4946791"></polyline>
                </g>
                <polygon id="Fill-124" fill="#ABBCC8" points="123.060175 106.053584 144.749278 106.053584 144.749278 85.0530733 123.060175 85.0530733"></polygon>
                <polygon id="Stroke-125" stroke="#FEFEFE" stroke-width="2" points="123.060175 106.053584 144.749278 106.053584 144.749278 85.0530733 123.060175 85.0530733"></polygon>
                <path d="M133.741992,85.0532007 L133.741992,106.053711" id="Stroke-126" stroke="#FEFEFE" stroke-width="2"></path>
                <polygon id="Fill-127" fill="#ABBCC8" points="123.060175 132.793433 144.749278 132.793433 144.749278 111.792923 123.060175 111.792923"></polygon>
                <polygon id="Stroke-128" stroke="#FEFEFE" stroke-width="2" points="123.060175 132.793433 144.749278 132.793433 144.749278 111.792923 123.060175 111.792923"></polygon>
                <path d="M133.741992,111.792795 L133.741992,132.793306" id="Stroke-129" stroke="#FEFEFE" stroke-width="2"></path>
                <path d="M92.0982257,70.698231 C92.0982257,63.6321108 97.8200368,57.9046602 104.878252,57.9046602 C111.936043,57.9046602 117.658702,63.6321108 117.658702,70.698231 L92.0982257,70.698231 Z" id="Fill-130" fill="#ABBCC8"></path>
                <path d="M92.0982257,70.698231 C92.0982257,63.6321108 97.8200368,57.9046602 104.878252,57.9046602 C111.936043,57.9046602 117.658702,63.6321108 117.658702,70.698231 L92.0982257,70.698231 L92.0982257,70.698231 Z" id="Stroke-131" stroke="#FEFEFE" stroke-width="2"></path>
                <path d="M104.878167,57.9047451 L104.878167,70.460132" id="Stroke-132" stroke="#FEFEFE" stroke-width="2"></path>
                <polygon id="Fill-133" fill="#D65556" points="97.501395 138.868182 113.567508 138.868182 113.567508 114.343315 97.501395 114.343315"></polygon>
                <polygon id="Stroke-134" stroke="#B54152" stroke-width="2" points="97.501395 138.868182 113.567508 138.868182 113.567508 114.343315 97.501395 114.343315"></polygon>
                <polygon id="Fill-135" fill="#D65556" points="97.501395 150.985837 113.567508 150.985837 113.567508 141.151945 97.501395 141.151945"></polygon>
                <polygon id="Stroke-136" stroke="#B54152" stroke-width="2" points="97.501395 150.985837 113.567508 150.985837 113.567508 141.151945 97.501395 141.151945"></polygon>
                <path d="M49.4598123,122.114774 C49.4598123,125.409013 46.276363,128.077861 42.348158,128.077861 C38.4224977,128.077861 35.2390484,125.409013 35.2390484,122.114774 C35.2390484,118.821383 38.4224977,116.153809 42.348158,116.153809 C46.276363,116.153809 49.4598123,118.821383 49.4598123,122.114774" id="Fill-138" fill="#20A94A"></path>
                <path d="M51.7928997,132.692513 C51.7928997,137.067708 47.5652655,140.610321 42.348158,140.610321 C37.1344434,140.610321 32.9068092,137.067708 32.9068092,132.692513 C32.9068092,128.321564 37.1344434,124.776828 42.348158,124.776828 C47.5652655,124.776828 51.7928997,128.321564 51.7928997,132.692513" id="Fill-139" fill="#20A94A"></path>
                <path d="M54.1239089,143.19695 C54.1239089,148.609792 48.8533622,152.99569 42.3482004,152.99569 C35.8464316,152.99569 30.5750366,148.609792 30.5750366,143.19695 C30.5750366,137.786215 35.8464316,133.400738 42.3482004,133.400738 C48.8533622,133.400738 54.1239089,137.786215 54.1239089,143.19695" id="Fill-140" fill="#20A94A"></path>
                <path d="M28.9595612,122.145428 C28.9595612,123.927773 27.2384798,125.370887 25.1157562,125.370887 C22.9938808,125.370887 21.2727994,123.927773 21.2727994,122.145428 C21.2727994,120.366054 22.9938808,118.924214 25.1157562,118.924214 C27.2384798,118.924214 28.9595612,120.366054 28.9595612,122.145428" id="Fill-141" fill="#20A94A"></path>
                <path d="M30.8357859,128.199288 C30.8357859,130.84903 28.275794,132.996081 25.1148231,132.996081 C21.9559729,132.996081 19.3959809,130.84903 19.3959809,128.199288 C19.3959809,125.550819 21.9559729,123.404193 25.1148231,123.404193 C28.275794,123.404193 30.8357859,125.550819 30.8357859,128.199288" id="Fill-142" fill="#20A94A"></path>
                <path d="M32.7122227,136.708522 C32.7122227,140.226934 29.3111996,143.077073 25.1149504,143.077073 C20.9203976,143.077073 17.521071,140.226934 17.521071,136.708522 C17.521071,133.191807 20.9203976,130.340819 25.1149504,130.340819 C29.3111996,130.340819 32.7122227,133.191807 32.7122227,136.708522" id="Fill-143" fill="#20A94A"></path>
                <path d="M34.5874295,145.129012 C34.5874295,149.482884 30.3470718,153.010396 25.1146959,153.010396 C19.8852888,153.010396 15.6445069,149.482884 15.6445069,145.129012 C15.6445069,140.777247 19.8852888,137.248892 25.1146959,137.248892 C30.3470718,137.248892 34.5874295,140.777247 34.5874295,145.129012" id="Fill-144" fill="#20A94A"></path>
                <path d="M12.5681481,125.761321 C12.5681481,127.341147 11.0425863,128.619952 9.16203558,128.619952 C7.28148482,128.619952 5.75592302,127.341147 5.75592302,125.761321 C5.75592302,124.184892 7.28148482,122.907361 9.16203558,122.907361 C11.0425863,122.907361 12.5681481,124.184892 12.5681481,125.761321" id="Fill-145" fill="#20A94A"></path>
                <path d="M14.2304464,131.126529 C14.2304464,133.474401 11.9614012,135.376475 9.16093286,135.376475 C6.36131276,135.376475 4.0935399,133.474401 4.0935399,131.126529 C4.0935399,128.779505 6.36131276,126.877007 9.16093286,126.877007 C11.9614012,126.877007 14.2304464,128.779505 14.2304464,131.126529" id="Fill-146" fill="#20A94A"></path>
                <path d="M15.8927871,138.66596 C15.8927871,141.784002 12.8794103,144.30977 9.1607208,144.30977 C5.44372784,144.30977 2.4311992,141.784002 2.4311992,138.66596 C2.4311992,135.550889 5.44372784,133.024272 9.1607208,133.024272 C12.8794103,133.024272 15.8927871,135.550889 15.8927871,138.66596" id="Fill-147" fill="#20A94A"></path>
                <path d="M17.5540675,146.085118 C17.5540675,149.904743 13.7972072,153 9.1607208,153 C4.5267791,153 0.769070553,149.904743 0.769070553,146.085118 C0.769070553,142.26591 4.5267791,139.171071 9.1607208,139.171071 C13.7972072,139.171071 17.5540675,142.26591 17.5540675,146.085118" id="Fill-148" fill="#20A94A"></path>
                <polygon id="Fill-149" fill="#20A94A" points="1.29302915 153.123548 52.3160101 153.123548 52.3160101 144.644458 1.29302915 144.644458"></polygon>
                <path d="M163.683464,114.337753 C163.683464,116.55316 165.822728,118.346544 168.462031,118.346544 C171.100909,118.346544 173.240598,116.55316 173.240598,114.337753 C173.240598,112.125743 171.100909,110.331934 168.462031,110.331934 C165.822728,110.331934 163.683464,112.125743 163.683464,114.337753" id="Fill-150" fill="#20A94A"></path>
                <path d="M161.351649,121.862664 C161.351649,125.157328 164.535098,127.825751 168.463303,127.825751 C172.388964,127.825751 175.572413,125.157328 175.572413,121.862664 C175.572413,118.569698 172.388964,115.902124 168.463303,115.902124 C164.535098,115.902124 161.351649,118.569698 161.351649,121.862664" id="Fill-151" fill="#20A94A"></path>
                <path d="M159.018562,132.440446 C159.018562,136.815641 163.246196,140.358253 168.463303,140.358253 C173.677018,140.358253 177.904228,136.815641 177.904228,132.440446 C177.904228,128.069497 173.677018,124.52561 168.463303,124.52561 C163.246196,124.52561 159.018562,128.069497 159.018562,132.440446" id="Fill-152" fill="#20A94A"></path>
                <path d="M156.687552,143.01861 C156.687552,148.472213 161.958099,152.891138 168.463261,152.891138 C174.96503,152.891138 180.236425,148.472213 180.236425,143.01861 C180.236425,137.56713 174.96503,133.148629 168.463261,133.148629 C161.958099,133.148629 156.687552,137.56713 156.687552,143.01861" id="Fill-153" fill="#20A94A"></path>
                <path d="M181.8519,121.89336 C181.8519,123.676555 183.572982,125.118819 185.695705,125.118819 C187.817581,125.118819 189.538662,123.676555 189.538662,121.89336 C189.538662,120.113987 187.817581,118.672147 185.695705,118.672147 C183.572982,118.672147 181.8519,120.113987 181.8519,121.89336" id="Fill-154" fill="#20A94A"></path>
                <path d="M179.975251,127.94722 C179.975251,130.597387 182.535243,132.744013 185.696214,132.744013 C188.855064,132.744013 191.41548,130.597387 191.41548,127.94722 C191.41548,125.298752 188.855064,123.152126 185.696214,123.152126 C182.535243,123.152126 179.975251,125.298752 179.975251,127.94722" id="Fill-155" fill="#20A94A"></path>
                <path d="M178.099027,136.456454 C178.099027,139.974867 181.50005,142.825006 185.696299,142.825006 C189.890852,142.825006 193.290178,139.974867 193.290178,136.456454 C193.290178,132.940589 189.890852,130.088752 185.696299,130.088752 C181.50005,130.088752 178.099027,132.940589 178.099027,136.456454" id="Fill-156" fill="#20A94A"></path>
                <path d="M176.224032,144.965264 C176.224032,149.351922 180.46439,152.905998 185.696341,152.905998 C190.926172,152.905998 195.16653,149.351922 195.16653,144.965264 C195.16653,140.580728 190.926172,137.025803 185.696341,137.025803 C180.46439,137.025803 176.224032,140.580728 176.224032,144.965264" id="Fill-157" fill="#20A94A"></path>
                <path d="M198.243101,125.509254 C198.243101,127.089928 199.768663,128.367884 201.649214,128.367884 C203.529764,128.367884 205.055326,127.089928 205.055326,125.509254 C205.055326,123.932825 203.529764,122.655294 201.649214,122.655294 C199.768663,122.655294 198.243101,123.932825 198.243101,125.509254" id="Fill-158" fill="#20A94A"></path>
                <path d="M196.581015,130.874844 C196.581015,133.222292 198.85006,135.124366 201.650104,135.124366 C204.450149,135.124366 206.717497,133.222292 206.717497,130.874844 C206.717497,128.527395 204.450149,126.624897 201.650104,126.624897 C198.85006,126.624897 196.581015,128.527395 196.581015,130.874844" id="Fill-159" fill="#20A94A"></path>
                <path d="M194.918462,138.41385 C194.918462,141.531893 197.931839,144.05766 201.650104,144.05766 C205.367946,144.05766 208.38005,141.531893 208.38005,138.41385 C208.38005,135.298779 205.367946,132.772162 201.650104,132.772162 C197.931839,132.772162 194.918462,135.298779 194.918462,138.41385" id="Fill-160" fill="#20A94A"></path>
                <path d="M193.257182,145.95413 C193.257182,149.840644 197.014042,152.990105 201.650104,152.990105 C206.28447,152.990105 210.042179,149.840644 210.042179,145.95413 C210.042179,142.068889 206.28447,138.919003 201.650104,138.919003 C197.014042,138.919003 193.257182,142.068889 193.257182,145.95413" id="Fill-161" fill="#20A94A"></path>
                <polygon id="Fill-162" fill="#20A94A" points="158.495451 153 209.518432 153 209.518432 144.343438 158.495451 144.343438"></polygon>
                <g id="Group-3" transform="translate(198.000000, 20.081093)">
                    <g id="Group-2"></g>
                </g>
            </g>
        </g>
    </g>
</svg>