<?xml version="1.0" encoding="UTF-8" standalone="no"?>
<svg width="22px" height="44px" viewBox="0 0 22 44" version="1.1" xmlns="http://www.w3.org/2000/svg" xmlns:xlink="http://www.w3.org/1999/xlink">
    <!-- Generator: Sketch 39.1 (31720) - http://www.bohemiancoding.com/sketch -->
    <title>phone</title>
    <desc>Created with Sketch.</desc>
    <defs></defs>
    <g id="FTUE-v3" stroke="none" stroke-width="1" fill="none" fill-rule="evenodd">
        <g id="FTUE-3" transform="translate(-220.000000, -216.000000)">
            <g id="phone" transform="translate(220.000000, 216.000000)">
                <polygon id="Fill-1" fill="#EEF1F3" points="1 38.3829787 20 38.3829787 20 6.55319149 1 6.55319149"></polygon>
                <path d="M1.24158416,38.0957152 L20.7599717,38.0957152 L20.7599717,5.9116321 L1.24158416,5.9116321 L1.24158416,38.0957152 Z M11,42.8317804 C10.0042433,42.8317804 9.19519095,42.0691313 9.19519095,41.1272084 C9.19519095,40.1852854 10.0042433,39.4211669 11,39.4211669 C11.9988685,39.4211669 12.8063649,40.1852854 12.8063649,41.1272084 C12.8063649,42.0691313 11.9988685,42.8317804 11,42.8317804 L11,42.8317804 Z M2.5874116,0 C1.16534653,0 0,1.10062452 0,2.44517917 L0,41.5548208 C0,42.8993755 1.16534653,44 2.5874116,44 L19.4110325,44 C20.8346535,44 22,42.8993755 22,41.5548208 L22,2.44517917 C22,1.10062452 20.8346535,0 19.4110325,0 L2.5874116,0 Z" id="Fill-2" fill="#B1B9BF"></path>
            </g>
        </g>
    </g>
</svg>