<?xml version="1.0" encoding="utf-8"?>
<!-- Generator: Adobe Illustrator 16.0.0, SVG Export Plug-In . SVG Version: 6.00 Build 0)  -->
<!DOCTYPE svg PUBLIC "-//W3C//DTD SVG 1.1//EN" "http://www.w3.org/Graphics/SVG/1.1/DTD/svg11.dtd">
<svg version="1.1" id="Layer_1" xmlns="http://www.w3.org/2000/svg" xmlns:xlink="http://www.w3.org/1999/xlink" x="0px" y="0px"
	 width="44px" height="44px" viewBox="0 0 44 44" enable-background="new 0 0 44 44" xml:space="preserve">
<circle fill="#FFFFFF" cx="22" cy="22" r="22"/>
<path fill-rule="evenodd" clip-rule="evenodd" fill="#8C8C8C" d="M25.267,23.739c0.387,0,0.719-0.134,0.99-0.409
	c0.273-0.275,0.41-0.602,0.41-0.99c0-0.386-0.137-0.713-0.41-0.988c-0.271-0.276-0.604-0.41-0.99-0.41s-0.719,0.134-0.988,0.41
	c-0.275,0.275-0.412,0.603-0.412,0.988c0,0.389,0.137,0.715,0.412,0.99C24.548,23.605,24.88,23.739,25.267,23.739z M28.534,12.434
	v19.133H15.466V12.434H28.534z"/>
</svg>
