<?xml version="1.0" encoding="UTF-8" standalone="no"?>
<svg width="170px" height="28px" viewBox="0 0 170 28" version="1.1" xmlns="http://www.w3.org/2000/svg" xmlns:xlink="http://www.w3.org/1999/xlink">
    <!-- Generator: Sketch 39.1 (31720) - http://www.bohemiancoding.com/sketch -->
    <title>text-living</title>
    <desc>Created with Sketch.</desc>
    <defs></defs>
    <g id="FTUE-v3" stroke="none" stroke-width="1" fill="none" fill-rule="evenodd">
        <g id="text-living">
            <path d="M0.9,1.468 L0.9,17 L9.92,17 L9.92,16.032 L2.066,16.032 L2.066,1.468 L0.9,1.468 Z M11.988,0.808 L11.988,2.81 L13.264,2.81 L13.264,0.808 L11.988,0.808 Z M12.076,5.692 L12.076,17 L13.176,17 L13.176,5.692 L12.076,5.692 Z M15.288,5.692 L19.424,17 L20.612,17 L24.704,5.692 L23.516,5.692 L20.282,14.976 L20.084,15.724 L19.996,15.724 L19.798,14.976 L16.542,5.692 L15.288,5.692 Z M26.706,0.808 L26.706,2.81 L27.982,2.81 L27.982,0.808 L26.706,0.808 Z M26.794,5.692 L26.794,17 L27.894,17 L27.894,5.692 L26.794,5.692 Z M40.5,17 L40.5,9.718 C40.5,8.266 40.148,7.298 39.488,6.616 C38.828,5.934 37.86,5.516 36.606,5.516 C35.11,5.516 33.702,6.154 32.888,7.672 L32.888,5.692 L31.854,5.692 L31.854,17 L32.954,17 L32.954,9.036 C32.954,8.112 34.164,6.462 36.364,6.462 C37.398,6.462 38.146,6.792 38.652,7.298 C39.18,7.826 39.378,8.596 39.378,9.542 L39.378,17 L40.5,17 Z M52.6,5.692 L51.566,5.692 L51.566,7.54 C50.708,6.066 49.476,5.516 48.002,5.516 C44.46,5.516 43.294,8.442 43.294,11.368 C43.294,14.184 44.394,17.176 47.804,17.176 C49.344,17.176 50.642,16.516 51.5,15.196 L51.5,17.176 C51.5,19.926 50.268,21.07 48.156,21.07 C46.638,21.07 45.494,20.718 44.548,20.234 L44.24,21.18 C45.406,21.73 46.726,22.016 48.134,22.016 C51.28,22.016 52.6,20.058 52.6,17.286 L52.6,5.692 Z M48.024,16.23 C45.208,16.23 44.438,13.876 44.438,11.412 C44.438,9.124 45.076,6.462 48.09,6.462 C50.576,6.462 51.5,8.31 51.5,9.058 L51.5,13.634 C51.5,14.404 50.4,16.23 48.024,16.23 L48.024,16.23 Z M61.818,1.468 L61.818,17 L62.984,17 L62.984,10.334 L67.89,10.334 L72.136,17 L73.478,17 L69.1,10.18 C71.498,9.762 72.708,8.244 72.708,5.89 C72.708,4.658 72.334,3.58 71.586,2.81 C70.794,1.974 69.584,1.468 67.604,1.468 L61.818,1.468 Z M62.984,2.436 L67.626,2.436 C70.244,2.436 71.52,3.734 71.52,5.89 C71.52,8.31 70.134,9.388 67.824,9.388 L62.984,9.388 L62.984,2.436 Z M80.408,5.516 C77.218,5.516 75.414,8.09 75.414,11.324 C75.414,14.822 77.306,17.176 80.408,17.176 C83.598,17.176 85.358,14.492 85.358,11.324 C85.358,7.914 83.488,5.516 80.408,5.516 L80.408,5.516 Z M80.386,6.462 C83.026,6.462 84.214,8.662 84.214,11.324 C84.214,14.008 83.004,16.23 80.386,16.23 C77.746,16.23 76.558,14.03 76.558,11.324 C76.558,8.64 77.768,6.462 80.386,6.462 L80.386,6.462 Z M92.684,5.516 C89.494,5.516 87.69,8.09 87.69,11.324 C87.69,14.822 89.582,17.176 92.684,17.176 C95.874,17.176 97.634,14.492 97.634,11.324 C97.634,7.914 95.764,5.516 92.684,5.516 L92.684,5.516 Z M92.662,6.462 C95.302,6.462 96.49,8.662 96.49,11.324 C96.49,14.008 95.28,16.23 92.662,16.23 C90.022,16.23 88.834,14.03 88.834,11.324 C88.834,8.64 90.044,6.462 92.662,6.462 L92.662,6.462 Z M108.832,17 L108.832,9.476 C108.832,7.826 110.262,6.462 111.978,6.462 C113.958,6.462 114.662,7.694 114.662,9.256 L114.662,17 L115.784,17 L115.784,9.432 C115.784,8.046 115.454,7.166 114.86,6.528 C114.244,5.868 113.364,5.516 112.176,5.516 C110.768,5.516 109.426,6.176 108.7,7.804 C108.194,6.088 106.874,5.516 105.29,5.516 C103.948,5.516 102.606,6.11 101.814,7.672 L101.814,5.692 L100.78,5.692 L100.78,17 L101.88,17 L101.88,9.036 C101.88,8.112 103.046,6.462 105.026,6.462 C107.006,6.462 107.732,7.694 107.732,9.234 L107.732,17 L108.832,17 Z M124.782,1.468 L124.782,17 L133.802,17 L133.802,16.032 L125.948,16.032 L125.948,1.468 L124.782,1.468 Z M135.87,0.808 L135.87,2.81 L137.146,2.81 L137.146,0.808 L135.87,0.808 Z M135.958,5.692 L135.958,17 L137.058,17 L137.058,5.692 L135.958,5.692 Z M149.488,5.692 L148.454,5.692 L148.454,7.54 C147.596,6.066 146.364,5.516 144.89,5.516 C141.348,5.516 140.182,8.442 140.182,11.368 C140.182,14.184 141.282,17.176 144.692,17.176 C146.232,17.176 147.53,16.516 148.388,15.196 L148.388,17.176 C148.388,19.926 147.156,21.07 145.044,21.07 C143.526,21.07 142.382,20.718 141.436,20.234 L141.128,21.18 C142.294,21.73 143.614,22.016 145.022,22.016 C148.168,22.016 149.488,20.058 149.488,17.286 L149.488,5.692 Z M144.912,16.23 C142.096,16.23 141.326,13.876 141.326,11.412 C141.326,9.124 141.964,6.462 144.978,6.462 C147.464,6.462 148.388,8.31 148.388,9.058 L148.388,13.634 C148.388,14.404 147.288,16.23 144.912,16.23 L144.912,16.23 Z M162.094,17 L162.094,9.718 C162.094,8.266 161.742,7.298 161.082,6.616 C160.422,5.934 159.454,5.516 158.2,5.516 C156.704,5.516 155.34,6.11 154.548,7.584 L154.548,0.808 L153.448,0.808 L153.448,17 L154.548,17 L154.548,9.036 C154.548,8.112 155.758,6.462 157.958,6.462 C158.992,6.462 159.74,6.792 160.224,7.298 C160.752,7.826 160.972,8.596 160.972,9.542 L160.972,17 L162.094,17 Z M165.944,2.678 L165.944,5.692 L164.096,5.692 L164.096,6.55 L165.944,6.55 L165.944,14.514 C165.944,15.988 166.472,17.176 168.386,17.176 C169.09,17.176 169.376,17.132 169.64,17.022 L169.706,16.186 L168.54,16.186 C167.242,16.186 167.044,15.416 167.044,14.36 L167.044,6.55 L169.64,6.55 L169.64,5.692 L167.044,5.692 L167.044,2.678 L165.944,2.678 Z" id="Living-Room-Light" fill="#191919"></path>
            <polygon id="Line-Copy-6" fill="#2EA0DD" points="19.6096596 27.6127947 169 27.6127947 170 27.6127947 170 25.6127947 169 25.6127947 19.6096596 25.6127947 2 25.6127947 1 25.6127947 1 27.6127947 2 27.6127947"></polygon>
        </g>
    </g>
</svg>