<?xml version="1.0" encoding="UTF-8" standalone="no"?>
<svg width="238px" height="28px" viewBox="0 0 238 28" version="1.1" xmlns="http://www.w3.org/2000/svg" xmlns:xlink="http://www.w3.org/1999/xlink">
    <!-- Generator: Sketch 39.1 (31720) - http://www.bohemiancoding.com/sketch -->
    <title>text-when-front</title>
    <desc>Created with Sketch.</desc>
    <defs></defs>
    <g id="FTUE-v3" stroke="none" stroke-width="1" fill="none" fill-rule="evenodd">
        <g id="text-when-front">
            <path d="M0.717,1.468 L4.545,17 L6.151,17 L9.605,3.646 L9.803,2.568 L9.957,2.568 L10.155,3.646 L13.653,17 L15.259,17 L19.197,1.468 L17.943,1.468 L14.753,14.822 L14.555,15.9 L14.401,15.9 L14.181,14.822 L10.705,1.468 L9.099,1.468 L5.623,14.822 L5.425,15.9 L5.249,15.9 L5.073,14.822 L1.971,1.468 L0.717,1.468 Z M30.769,17 L30.769,9.718 C30.769,8.266 30.417,7.298 29.757,6.616 C29.097,5.934 28.129,5.516 26.875,5.516 C25.379,5.516 24.015,6.11 23.223,7.584 L23.223,0.808 L22.123,0.808 L22.123,17 L23.223,17 L23.223,9.036 C23.223,8.112 24.433,6.462 26.633,6.462 C27.667,6.462 28.415,6.792 28.899,7.298 C29.427,7.826 29.647,8.596 29.647,9.542 L29.647,17 L30.769,17 Z M43.155,11.434 C43.221,10.95 43.221,10.752 43.221,10.466 C43.221,7.584 41.637,5.516 38.711,5.516 C35.521,5.516 33.585,8.024 33.585,11.522 C33.585,14.756 35.257,17.176 38.975,17.176 C40.603,17.176 41.835,16.692 42.935,15.856 L42.473,14.976 C41.439,15.768 40.361,16.23 38.975,16.23 C35.785,16.23 34.729,13.964 34.729,11.456 L34.729,11.434 L43.155,11.434 Z M38.667,6.418 C40.977,6.418 42.209,8.222 42.099,10.576 L34.773,10.576 C35.037,8.024 36.489,6.418 38.667,6.418 L38.667,6.418 Z M54.991,17 L54.991,9.718 C54.991,8.266 54.639,7.298 53.979,6.616 C53.319,5.934 52.351,5.516 51.097,5.516 C49.601,5.516 48.193,6.154 47.379,7.672 L47.379,5.692 L46.345,5.692 L46.345,17 L47.445,17 L47.445,9.036 C47.445,8.112 48.655,6.462 50.855,6.462 C51.889,6.462 52.637,6.792 53.143,7.298 C53.671,7.826 53.869,8.596 53.869,9.542 L53.869,17 L54.991,17 Z M63.879,1.468 L63.879,17 L65.045,17 L65.045,9.388 L72.503,9.388 L72.503,8.42 L65.045,8.42 L65.045,2.436 L73.471,2.436 L73.471,1.468 L63.879,1.468 Z M81.259,5.714 C80.885,5.626 80.577,5.582 80.247,5.582 C78.993,5.582 77.959,6.44 77.321,7.672 L77.321,5.692 L76.287,5.692 L76.287,17 L77.387,17 L77.387,9.102 C77.387,8.134 78.377,6.748 80.159,6.748 C80.467,6.748 80.687,6.77 81.105,6.88 L81.259,5.714 Z M87.573,5.516 C84.383,5.516 82.579,8.09 82.579,11.324 C82.579,14.822 84.471,17.176 87.573,17.176 C90.763,17.176 92.523,14.492 92.523,11.324 C92.523,7.914 90.653,5.516 87.573,5.516 L87.573,5.516 Z M87.551,6.462 C90.191,6.462 91.379,8.662 91.379,11.324 C91.379,14.008 90.169,16.23 87.551,16.23 C84.911,16.23 83.723,14.03 83.723,11.324 C83.723,8.64 84.933,6.462 87.551,6.462 L87.551,6.462 Z M104.315,17 L104.315,9.718 C104.315,8.266 103.963,7.298 103.303,6.616 C102.643,5.934 101.675,5.516 100.421,5.516 C98.925,5.516 97.517,6.154 96.703,7.672 L96.703,5.692 L95.669,5.692 L95.669,17 L96.769,17 L96.769,9.036 C96.769,8.112 97.979,6.462 100.179,6.462 C101.213,6.462 101.961,6.792 102.467,7.298 C102.995,7.826 103.193,8.596 103.193,9.542 L103.193,17 L104.315,17 Z M108.165,2.678 L108.165,5.692 L106.317,5.692 L106.317,6.55 L108.165,6.55 L108.165,14.514 C108.165,15.988 108.693,17.176 110.607,17.176 C111.311,17.176 111.597,17.132 111.861,17.022 L111.927,16.186 L110.761,16.186 C109.463,16.186 109.265,15.416 109.265,14.36 L109.265,6.55 L111.861,6.55 L111.861,5.692 L109.265,5.692 L109.265,2.678 L108.165,2.678 Z M119.759,1.468 L119.759,17 L124.511,17 C128.779,17 132.167,14.91 132.167,9.124 C132.167,3.646 128.801,1.468 124.511,1.468 L119.759,1.468 Z M124.621,2.436 C128.713,2.436 130.957,5.12 130.957,9.124 C130.957,13.48 128.669,16.032 124.621,16.032 L120.925,16.032 L120.925,2.436 L124.621,2.436 Z M139.713,5.516 C136.523,5.516 134.719,8.09 134.719,11.324 C134.719,14.822 136.611,17.176 139.713,17.176 C142.903,17.176 144.663,14.492 144.663,11.324 C144.663,7.914 142.793,5.516 139.713,5.516 L139.713,5.516 Z M139.691,6.462 C142.331,6.462 143.519,8.662 143.519,11.324 C143.519,14.008 142.309,16.23 139.691,16.23 C137.051,16.23 135.863,14.03 135.863,11.324 C135.863,8.64 137.073,6.462 139.691,6.462 L139.691,6.462 Z M151.989,5.516 C148.799,5.516 146.995,8.09 146.995,11.324 C146.995,14.822 148.887,17.176 151.989,17.176 C155.179,17.176 156.939,14.492 156.939,11.324 C156.939,7.914 155.069,5.516 151.989,5.516 L151.989,5.516 Z M151.967,6.462 C154.607,6.462 155.795,8.662 155.795,11.324 C155.795,14.008 154.585,16.23 151.967,16.23 C149.327,16.23 148.139,14.03 148.139,11.324 C148.139,8.64 149.349,6.462 151.967,6.462 L151.967,6.462 Z M165.057,5.714 C164.683,5.626 164.375,5.582 164.045,5.582 C162.791,5.582 161.757,6.44 161.119,7.672 L161.119,5.692 L160.085,5.692 L160.085,17 L161.185,17 L161.185,9.102 C161.185,8.134 162.175,6.748 163.957,6.748 C164.265,6.748 164.485,6.77 164.903,6.88 L165.057,5.714 Z M176.409,5.516 C173.219,5.516 171.415,8.09 171.415,11.324 C171.415,14.822 173.307,17.176 176.409,17.176 C179.599,17.176 181.359,14.492 181.359,11.324 C181.359,7.914 179.489,5.516 176.409,5.516 L176.409,5.516 Z M176.387,6.462 C179.027,6.462 180.215,8.662 180.215,11.324 C180.215,14.008 179.005,16.23 176.387,16.23 C173.747,16.23 172.559,14.03 172.559,11.324 C172.559,8.64 173.769,6.462 176.387,6.462 L176.387,6.462 Z M184.505,5.692 L184.505,21.84 L185.605,21.84 L185.605,15.284 C186.397,16.692 187.805,17.176 189.257,17.176 C192.865,17.176 193.811,13.854 193.811,11.236 C193.811,8.134 192.491,5.516 189.213,5.516 C187.563,5.516 186.463,6.22 185.539,7.606 L185.539,5.692 L184.505,5.692 Z M189.081,6.462 C191.919,6.462 192.667,8.816 192.667,11.302 C192.667,13.656 192.007,16.23 188.927,16.23 C186.639,16.23 185.605,14.448 185.605,13.634 L185.605,9.08 C185.605,8.31 186.727,6.462 189.081,6.462 L189.081,6.462 Z M205.735,11.434 C205.801,10.95 205.801,10.752 205.801,10.466 C205.801,7.584 204.217,5.516 201.291,5.516 C198.101,5.516 196.165,8.024 196.165,11.522 C196.165,14.756 197.837,17.176 201.555,17.176 C203.183,17.176 204.415,16.692 205.515,15.856 L205.053,14.976 C204.019,15.768 202.941,16.23 201.555,16.23 C198.365,16.23 197.309,13.964 197.309,11.456 L197.309,11.434 L205.735,11.434 Z M201.247,6.418 C203.557,6.418 204.789,8.222 204.679,10.576 L197.353,10.576 C197.617,8.024 199.069,6.418 201.247,6.418 L201.247,6.418 Z M217.571,17 L217.571,9.718 C217.571,8.266 217.219,7.298 216.559,6.616 C215.899,5.934 214.931,5.516 213.677,5.516 C212.181,5.516 210.773,6.154 209.959,7.672 L209.959,5.692 L208.925,5.692 L208.925,17 L210.025,17 L210.025,9.036 C210.025,8.112 211.235,6.462 213.435,6.462 C214.469,6.462 215.217,6.792 215.723,7.298 C216.251,7.826 216.449,8.596 216.449,9.542 L216.449,17 L217.571,17 Z M220.299,16.648 C220.717,16.89 222.235,17.33 223.709,17.33 C225.909,17.33 227.911,16.318 227.911,14.03 C227.911,11.852 226.063,11.214 224.479,10.752 C222.719,10.246 221.575,9.74 221.575,8.332 C221.575,7.012 222.697,6.396 224.237,6.396 C225.249,6.396 226.283,6.682 227.141,7.034 L227.383,6.11 C226.591,5.736 225.359,5.516 224.303,5.516 C222.037,5.516 220.519,6.528 220.519,8.42 C220.519,10.312 222.125,11.104 223.511,11.544 C225.447,12.138 226.811,12.622 226.811,14.184 C226.811,15.79 225.315,16.428 223.687,16.428 C222.367,16.428 221.091,16.032 220.519,15.702 L220.299,16.648 Z M236.293,14.646 L234.313,19.948 L235.259,19.948 L237.745,14.646 L236.293,14.646 Z" id="When-Front-Door-open" fill="#191919"></path>
            <polygon id="Line-Copy-2" fill="#2EA0DD" points="154.290094 28 162 28 163 28 163 26 162 26 154.290094 26 63 26 62 26 62 28 63 28"></polygon>
            <polygon id="Line-Copy-3" fill="#2EA0DD" points="223.638841 28 228 28 229 28 229 26 228 26 223.638841 26 172 26 171 26 171 28 172 28"></polygon>
        </g>
    </g>
</svg>