<?xml version="1.0" encoding="UTF-8" standalone="no"?>
<svg width="68px" height="28px" viewBox="0 0 68 28" version="1.1" xmlns="http://www.w3.org/2000/svg" xmlns:xlink="http://www.w3.org/1999/xlink">
    <!-- Generator: Sketch 39.1 (31720) - http://www.bohemiancoding.com/sketch -->
    <title>text-turn-on2</title>
    <desc>Created with Sketch.</desc>
    <defs></defs>
    <g id="FTUE-v3" stroke="none" stroke-width="1" fill="none" fill-rule="evenodd">
        <g id="text-turn-on2">
            <g id="text-turn-on">
                <rect id="Rectangle-4" x="24" y="0" width="19" height="28"></rect>
                <path d="M2.798,3.678 L2.798,6.692 L0.95,6.692 L0.95,7.55 L2.798,7.55 L2.798,15.514 C2.798,16.988 3.326,18.176 5.24,18.176 C5.944,18.176 6.23,18.132 6.494,18.022 L6.56,17.186 L5.394,17.186 C4.096,17.186 3.898,16.416 3.898,15.36 L3.898,7.55 L6.494,7.55 L6.494,6.692 L3.898,6.692 L3.898,3.678 L2.798,3.678 Z M8.914,6.692 L8.914,13.974 C8.914,15.426 9.266,16.394 9.926,17.076 C10.586,17.758 11.554,18.176 12.786,18.176 C14.282,18.176 15.712,17.538 16.504,16.02 L16.504,18 L17.56,18 L17.56,6.692 L16.438,6.692 L16.438,14.656 C16.438,15.58 15.25,17.23 13.028,17.23 C12.016,17.23 11.246,16.9 10.762,16.394 C10.234,15.866 10.014,15.096 10.014,14.15 L10.014,6.692 L8.914,6.692 Z M26.382,6.714 C26.008,6.626 25.7,6.582 25.37,6.582 C24.116,6.582 23.082,7.44 22.444,8.672 L22.444,6.692 L21.41,6.692 L21.41,18 L22.51,18 L22.51,10.102 C22.51,9.134 23.5,7.748 25.282,7.748 C25.59,7.748 25.81,7.77 26.228,7.88 L26.382,6.714 Z M37.162,18 L37.162,10.718 C37.162,9.266 36.81,8.298 36.15,7.616 C35.49,6.934 34.522,6.516 33.268,6.516 C31.772,6.516 30.364,7.154 29.55,8.672 L29.55,6.692 L28.516,6.692 L28.516,18 L29.616,18 L29.616,10.036 C29.616,9.112 30.826,7.462 33.026,7.462 C34.06,7.462 34.808,7.792 35.314,8.298 C35.842,8.826 36.04,9.596 36.04,10.542 L36.04,18 L37.162,18 Z M50.01,6.516 C46.82,6.516 45.016,9.09 45.016,12.324 C45.016,15.822 46.908,18.176 50.01,18.176 C53.2,18.176 54.96,15.492 54.96,12.324 C54.96,8.914 53.09,6.516 50.01,6.516 L50.01,6.516 Z M49.988,7.462 C52.628,7.462 53.816,9.662 53.816,12.324 C53.816,15.008 52.606,17.23 49.988,17.23 C47.348,17.23 46.16,15.03 46.16,12.324 C46.16,9.64 47.37,7.462 49.988,7.462 L49.988,7.462 Z M66.752,18 L66.752,10.718 C66.752,9.266 66.4,8.298 65.74,7.616 C65.08,6.934 64.112,6.516 62.858,6.516 C61.362,6.516 59.954,7.154 59.14,8.672 L59.14,6.692 L58.106,6.692 L58.106,18 L59.206,18 L59.206,10.036 C59.206,9.112 60.416,7.462 62.616,7.462 C63.65,7.462 64.398,7.792 64.904,8.298 C65.432,8.826 65.63,9.596 65.63,10.542 L65.63,18 L66.752,18 Z" id="turn-on" fill="#191919"></path>
                <polygon id="Line-Copy-4" fill="#2EA0DD" points="34.2958984 28 66.6103516 28 67.6103516 28 67.6103516 26 66.6103516 26 34.2958984 26 4 26 3 26 3 28 4 28"></polygon>
            </g>
        </g>
    </g>
</svg>