<?xml version="1.0" encoding="UTF-8" standalone="no"?>
<svg width="111px" height="28px" viewBox="0 0 111 28" version="1.1" xmlns="http://www.w3.org/2000/svg" xmlns:xlink="http://www.w3.org/1999/xlink">
    <!-- Generator: Sketch 39.1 (31720) - http://www.bohemiancoding.com/sketch -->
    <title>text-porch-light</title>
    <desc>Created with Sketch.</desc>
    <defs></defs>
    <g id="FTUE-v3" stroke="none" stroke-width="1" fill="none" fill-rule="evenodd">
        <g id="text-porch-light">
            <path d="M4.482,2.436 L8.882,2.436 C10.4,2.436 11.368,2.832 11.962,3.514 C12.534,4.13 12.798,5.01 12.798,5.978 C12.798,7.122 12.49,8.046 11.852,8.684 C11.258,9.278 10.356,9.608 8.882,9.608 L4.482,9.608 L4.482,2.436 Z M3.316,1.468 L3.316,17 L4.482,17 L4.482,10.576 L8.75,10.576 C10.84,10.576 11.94,10.136 12.732,9.366 C13.568,8.552 13.986,7.364 13.986,5.978 C13.986,4.724 13.634,3.624 12.886,2.832 C12.094,1.974 10.818,1.468 8.75,1.468 L3.316,1.468 Z M21.004,5.516 C17.814,5.516 16.01,8.09 16.01,11.324 C16.01,14.822 17.902,17.176 21.004,17.176 C24.194,17.176 25.954,14.492 25.954,11.324 C25.954,7.914 24.084,5.516 21.004,5.516 L21.004,5.516 Z M20.982,6.462 C23.622,6.462 24.81,8.662 24.81,11.324 C24.81,14.008 23.6,16.23 20.982,16.23 C18.342,16.23 17.154,14.03 17.154,11.324 C17.154,8.64 18.364,6.462 20.982,6.462 L20.982,6.462 Z M34.072,5.714 C33.698,5.626 33.39,5.582 33.06,5.582 C31.806,5.582 30.772,6.44 30.134,7.672 L30.134,5.692 L29.1,5.692 L29.1,17 L30.2,17 L30.2,9.102 C30.2,8.134 31.19,6.748 32.972,6.748 C33.28,6.748 33.5,6.77 33.918,6.88 L34.072,5.714 Z M43.466,15.35 C42.674,15.9 41.706,16.23 40.54,16.23 C37.548,16.23 36.536,13.964 36.536,11.434 C36.536,8.53 37.834,6.462 40.54,6.462 C41.728,6.462 42.674,6.814 43.466,7.342 L43.774,6.396 C42.916,5.846 41.86,5.516 40.518,5.516 C37.152,5.516 35.392,7.98 35.392,11.456 C35.392,14.756 36.998,17.176 40.474,17.176 C41.882,17.176 42.916,16.846 43.774,16.296 L43.466,15.35 Z M55.478,17 L55.478,9.718 C55.478,8.266 55.126,7.298 54.466,6.616 C53.806,5.934 52.838,5.516 51.584,5.516 C50.088,5.516 48.724,6.11 47.932,7.584 L47.932,0.808 L46.832,0.808 L46.832,17 L47.932,17 L47.932,9.036 C47.932,8.112 49.142,6.462 51.342,6.462 C52.376,6.462 53.124,6.792 53.608,7.298 C54.136,7.826 54.356,8.596 54.356,9.542 L54.356,17 L55.478,17 Z M64.366,1.468 L64.366,17 L73.386,17 L73.386,16.032 L65.532,16.032 L65.532,1.468 L64.366,1.468 Z M75.454,0.808 L75.454,2.81 L76.73,2.81 L76.73,0.808 L75.454,0.808 Z M75.542,5.692 L75.542,17 L76.642,17 L76.642,5.692 L75.542,5.692 Z M89.072,5.692 L88.038,5.692 L88.038,7.54 C87.18,6.066 85.948,5.516 84.474,5.516 C80.932,5.516 79.766,8.442 79.766,11.368 C79.766,14.184 80.866,17.176 84.276,17.176 C85.816,17.176 87.114,16.516 87.972,15.196 L87.972,17.176 C87.972,19.926 86.74,21.07 84.628,21.07 C83.11,21.07 81.966,20.718 81.02,20.234 L80.712,21.18 C81.878,21.73 83.198,22.016 84.606,22.016 C87.752,22.016 89.072,20.058 89.072,17.286 L89.072,5.692 Z M84.496,16.23 C81.68,16.23 80.91,13.876 80.91,11.412 C80.91,9.124 81.548,6.462 84.562,6.462 C87.048,6.462 87.972,8.31 87.972,9.058 L87.972,13.634 C87.972,14.404 86.872,16.23 84.496,16.23 L84.496,16.23 Z M101.678,17 L101.678,9.718 C101.678,8.266 101.326,7.298 100.666,6.616 C100.006,5.934 99.038,5.516 97.784,5.516 C96.288,5.516 94.924,6.11 94.132,7.584 L94.132,0.808 L93.032,0.808 L93.032,17 L94.132,17 L94.132,9.036 C94.132,8.112 95.342,6.462 97.542,6.462 C98.576,6.462 99.324,6.792 99.808,7.298 C100.336,7.826 100.556,8.596 100.556,9.542 L100.556,17 L101.678,17 Z M105.528,2.678 L105.528,5.692 L103.68,5.692 L103.68,6.55 L105.528,6.55 L105.528,14.514 C105.528,15.988 106.056,17.176 107.97,17.176 C108.674,17.176 108.96,17.132 109.224,17.022 L109.29,16.186 L108.124,16.186 C106.826,16.186 106.628,15.416 106.628,14.36 L106.628,6.55 L109.224,6.55 L109.224,5.692 L106.628,5.692 L106.628,2.678 L105.528,2.678 Z" id="Porch-Light" fill="#191919"></path>
            <polygon id="Line-Copy-6" fill="#2EA0DD" points="12.4937299 28 110 28 111 28 111 26 110 26 12.4937299 26 1 26 0 26 0 28 1 28"></polygon>
        </g>
    </g>
</svg>